<mxfile host="app.diagrams.net" modified="2024-03-20T21:01:47.021Z" agent="Mozilla/5.0 (Windows NT 10.0; Win64; x64) AppleWebKit/537.36 (KHTML, like Gecko) Chrome/122.0.0.0 Safari/537.36" etag="iRt9NumhMWN8IpHtdB2v" version="24.0.7" type="device">
  <diagram name="PÃ¡gina-1" id="lD163Vnd4FFZl28pI0uj">
    <mxGraphModel dx="1434" dy="818" grid="1" gridSize="10" guides="1" tooltips="1" connect="1" arrows="1" fold="1" page="1" pageScale="1" pageWidth="827" pageHeight="1169" math="0" shadow="0">
      <root>
        <mxCell id="0" />
        <mxCell id="1" parent="0" />
        <mxCell id="HJrGSc-7__fv8DipX3A_-1" value="Player" style="rounded=0;whiteSpace=wrap;html=1;" parent="1" vertex="1">
          <mxGeometry x="130" y="120" width="120" height="50" as="geometry" />
        </mxCell>
        <mxCell id="HJrGSc-7__fv8DipX3A_-2" value="name" style="ellipse;whiteSpace=wrap;html=1;fontStyle=0" parent="1" vertex="1">
          <mxGeometry x="90" y="50" width="80" height="30" as="geometry" />
        </mxCell>
        <mxCell id="HJrGSc-7__fv8DipX3A_-3" value="" style="endArrow=none;html=1;rounded=0;exitX=0.5;exitY=1;exitDx=0;exitDy=0;entryX=0.25;entryY=0;entryDx=0;entryDy=0;" parent="1" source="HJrGSc-7__fv8DipX3A_-2" target="HJrGSc-7__fv8DipX3A_-1" edge="1">
          <mxGeometry width="50" height="50" relative="1" as="geometry">
            <mxPoint x="390" y="450" as="sourcePoint" />
            <mxPoint x="440" y="400" as="targetPoint" />
          </mxGeometry>
        </mxCell>
        <mxCell id="HJrGSc-7__fv8DipX3A_-4" value="email" style="ellipse;whiteSpace=wrap;html=1;fontStyle=0" parent="1" vertex="1">
          <mxGeometry x="180" y="50" width="80" height="30" as="geometry" />
        </mxCell>
        <mxCell id="HJrGSc-7__fv8DipX3A_-5" value="id" style="ellipse;whiteSpace=wrap;html=1;fontStyle=4" parent="1" vertex="1">
          <mxGeometry x="10" y="100" width="80" height="30" as="geometry" />
        </mxCell>
        <mxCell id="HJrGSc-7__fv8DipX3A_-6" value="token" style="ellipse;whiteSpace=wrap;html=1;fontStyle=0" parent="1" vertex="1">
          <mxGeometry x="270" y="100" width="80" height="30" as="geometry" />
        </mxCell>
        <mxCell id="HJrGSc-7__fv8DipX3A_-7" value="" style="endArrow=none;html=1;rounded=0;exitX=1;exitY=1;exitDx=0;exitDy=0;entryX=0;entryY=0.25;entryDx=0;entryDy=0;" parent="1" source="HJrGSc-7__fv8DipX3A_-5" target="HJrGSc-7__fv8DipX3A_-1" edge="1">
          <mxGeometry width="50" height="50" relative="1" as="geometry">
            <mxPoint x="220" y="400" as="sourcePoint" />
            <mxPoint x="270" y="350" as="targetPoint" />
          </mxGeometry>
        </mxCell>
        <mxCell id="HJrGSc-7__fv8DipX3A_-8" value="" style="endArrow=none;html=1;rounded=0;entryX=0.425;entryY=1.033;entryDx=0;entryDy=0;entryPerimeter=0;exitX=0.5;exitY=0;exitDx=0;exitDy=0;" parent="1" source="HJrGSc-7__fv8DipX3A_-1" target="HJrGSc-7__fv8DipX3A_-4" edge="1">
          <mxGeometry width="50" height="50" relative="1" as="geometry">
            <mxPoint x="390" y="450" as="sourcePoint" />
            <mxPoint x="440" y="400" as="targetPoint" />
          </mxGeometry>
        </mxCell>
        <mxCell id="HJrGSc-7__fv8DipX3A_-9" value="" style="endArrow=none;html=1;rounded=0;entryX=0;entryY=0.5;entryDx=0;entryDy=0;exitX=1;exitY=0.25;exitDx=0;exitDy=0;" parent="1" source="HJrGSc-7__fv8DipX3A_-1" target="HJrGSc-7__fv8DipX3A_-6" edge="1">
          <mxGeometry width="50" height="50" relative="1" as="geometry">
            <mxPoint x="270" y="390" as="sourcePoint" />
            <mxPoint x="320" y="340" as="targetPoint" />
          </mxGeometry>
        </mxCell>
        <mxCell id="HJrGSc-7__fv8DipX3A_-10" value="Game" style="rounded=0;whiteSpace=wrap;html=1;" parent="1" vertex="1">
          <mxGeometry x="530" y="650" width="120" height="60" as="geometry" />
        </mxCell>
        <mxCell id="HJrGSc-7__fv8DipX3A_-11" value="gid" style="ellipse;whiteSpace=wrap;html=1;fontStyle=4" parent="1" vertex="1">
          <mxGeometry x="440" y="740" width="80" height="30" as="geometry" />
        </mxCell>
        <mxCell id="HJrGSc-7__fv8DipX3A_-12" value="name" style="ellipse;whiteSpace=wrap;html=1;fontStyle=0" parent="1" vertex="1">
          <mxGeometry x="540" y="770" width="80" height="30" as="geometry" />
        </mxCell>
        <mxCell id="HJrGSc-7__fv8DipX3A_-13" value="developer" style="ellipse;whiteSpace=wrap;html=1;fontStyle=0" parent="1" vertex="1">
          <mxGeometry x="630" y="770" width="80" height="30" as="geometry" />
        </mxCell>
        <mxCell id="HJrGSc-7__fv8DipX3A_-14" value="genres" style="ellipse;whiteSpace=wrap;html=1;fontStyle=0" parent="1" vertex="1">
          <mxGeometry x="690" y="740" width="80" height="30" as="geometry" />
        </mxCell>
        <mxCell id="HJrGSc-7__fv8DipX3A_-15" value="" style="endArrow=none;html=1;rounded=0;entryX=0;entryY=1;entryDx=0;entryDy=0;exitX=0.5;exitY=0;exitDx=0;exitDy=0;" parent="1" source="HJrGSc-7__fv8DipX3A_-11" target="HJrGSc-7__fv8DipX3A_-10" edge="1">
          <mxGeometry width="50" height="50" relative="1" as="geometry">
            <mxPoint x="300" y="820" as="sourcePoint" />
            <mxPoint x="350" y="770" as="targetPoint" />
          </mxGeometry>
        </mxCell>
        <mxCell id="HJrGSc-7__fv8DipX3A_-16" value="" style="endArrow=none;html=1;rounded=0;entryX=0.375;entryY=1.017;entryDx=0;entryDy=0;entryPerimeter=0;exitX=0.5;exitY=0;exitDx=0;exitDy=0;" parent="1" source="HJrGSc-7__fv8DipX3A_-12" target="HJrGSc-7__fv8DipX3A_-10" edge="1">
          <mxGeometry width="50" height="50" relative="1" as="geometry">
            <mxPoint x="580" y="780" as="sourcePoint" />
            <mxPoint x="630" y="730" as="targetPoint" />
          </mxGeometry>
        </mxCell>
        <mxCell id="HJrGSc-7__fv8DipX3A_-17" value="" style="endArrow=none;html=1;rounded=0;entryX=0.808;entryY=1.017;entryDx=0;entryDy=0;entryPerimeter=0;exitX=0.5;exitY=0;exitDx=0;exitDy=0;" parent="1" source="HJrGSc-7__fv8DipX3A_-13" target="HJrGSc-7__fv8DipX3A_-10" edge="1">
          <mxGeometry width="50" height="50" relative="1" as="geometry">
            <mxPoint x="490" y="870" as="sourcePoint" />
            <mxPoint x="540" y="820" as="targetPoint" />
          </mxGeometry>
        </mxCell>
        <mxCell id="HJrGSc-7__fv8DipX3A_-18" value="" style="endArrow=none;html=1;rounded=0;entryX=1;entryY=0.5;entryDx=0;entryDy=0;exitX=0;exitY=0;exitDx=0;exitDy=0;" parent="1" source="HJrGSc-7__fv8DipX3A_-14" target="HJrGSc-7__fv8DipX3A_-10" edge="1">
          <mxGeometry width="50" height="50" relative="1" as="geometry">
            <mxPoint x="490" y="900" as="sourcePoint" />
            <mxPoint x="540" y="850" as="targetPoint" />
          </mxGeometry>
        </mxCell>
        <mxCell id="HJrGSc-7__fv8DipX3A_-20" value="sid" style="ellipse;whiteSpace=wrap;html=1;fontStyle=4" parent="1" vertex="1">
          <mxGeometry x="20" y="760" width="80" height="30" as="geometry" />
        </mxCell>
        <mxCell id="HJrGSc-7__fv8DipX3A_-21" value="" style="endArrow=none;html=1;rounded=0;entryX=0;entryY=1;entryDx=0;entryDy=0;exitX=1;exitY=0;exitDx=0;exitDy=0;" parent="1" source="HJrGSc-7__fv8DipX3A_-20" edge="1">
          <mxGeometry width="50" height="50" relative="1" as="geometry">
            <mxPoint x="130" y="830" as="sourcePoint" />
            <mxPoint x="130" y="710" as="targetPoint" />
          </mxGeometry>
        </mxCell>
        <mxCell id="HJrGSc-7__fv8DipX3A_-22" value="capacity" style="ellipse;whiteSpace=wrap;html=1;fontStyle=0" parent="1" vertex="1">
          <mxGeometry x="100" y="790" width="80" height="30" as="geometry" />
        </mxCell>
        <mxCell id="HJrGSc-7__fv8DipX3A_-23" value="session_date" style="ellipse;whiteSpace=wrap;html=1;fontStyle=0" parent="1" vertex="1">
          <mxGeometry x="190" y="790" width="80" height="30" as="geometry" />
        </mxCell>
        <mxCell id="HJrGSc-7__fv8DipX3A_-25" value="" style="endArrow=none;html=1;rounded=0;entryX=0.333;entryY=1;entryDx=0;entryDy=0;entryPerimeter=0;exitX=0.5;exitY=0;exitDx=0;exitDy=0;" parent="1" source="HJrGSc-7__fv8DipX3A_-22" edge="1">
          <mxGeometry width="50" height="50" relative="1" as="geometry">
            <mxPoint x="210" y="800" as="sourcePoint" />
            <mxPoint x="169.96000000000004" y="710" as="targetPoint" />
          </mxGeometry>
        </mxCell>
        <mxCell id="HJrGSc-7__fv8DipX3A_-26" value="" style="endArrow=none;html=1;rounded=0;entryX=0.75;entryY=1;entryDx=0;entryDy=0;exitX=0.5;exitY=0;exitDx=0;exitDy=0;" parent="1" source="HJrGSc-7__fv8DipX3A_-23" edge="1">
          <mxGeometry width="50" height="50" relative="1" as="geometry">
            <mxPoint x="210" y="790" as="sourcePoint" />
            <mxPoint x="220" y="710" as="targetPoint" />
          </mxGeometry>
        </mxCell>
        <mxCell id="HJrGSc-7__fv8DipX3A_-27" value="" style="rhombus;whiteSpace=wrap;html=1;" parent="1" vertex="1">
          <mxGeometry x="340" y="650" width="70" height="60" as="geometry" />
        </mxCell>
        <mxCell id="HJrGSc-7__fv8DipX3A_-28" value="" style="endArrow=none;html=1;rounded=0;entryX=0;entryY=0.5;entryDx=0;entryDy=0;exitX=1;exitY=0.5;exitDx=0;exitDy=0;" parent="1" target="HJrGSc-7__fv8DipX3A_-27" edge="1">
          <mxGeometry width="50" height="50" relative="1" as="geometry">
            <mxPoint x="250" y="680" as="sourcePoint" />
            <mxPoint x="180" y="560" as="targetPoint" />
          </mxGeometry>
        </mxCell>
        <mxCell id="HJrGSc-7__fv8DipX3A_-32" value="" style="endArrow=none;html=1;rounded=0;entryX=0;entryY=0.5;entryDx=0;entryDy=0;exitX=1;exitY=0.5;exitDx=0;exitDy=0;" parent="1" source="HJrGSc-7__fv8DipX3A_-27" target="HJrGSc-7__fv8DipX3A_-10" edge="1">
          <mxGeometry width="50" height="50" relative="1" as="geometry">
            <mxPoint x="430" y="720" as="sourcePoint" />
            <mxPoint x="480" y="670" as="targetPoint" />
          </mxGeometry>
        </mxCell>
        <mxCell id="HJrGSc-7__fv8DipX3A_-33" value="" style="rhombus;whiteSpace=wrap;html=1;" parent="1" vertex="1">
          <mxGeometry x="155" y="390" width="70" height="60" as="geometry" />
        </mxCell>
        <mxCell id="HJrGSc-7__fv8DipX3A_-34" value="" style="endArrow=none;html=1;rounded=0;entryX=0.5;entryY=1;entryDx=0;entryDy=0;" parent="1" target="HJrGSc-7__fv8DipX3A_-33" edge="1">
          <mxGeometry width="50" height="50" relative="1" as="geometry">
            <mxPoint x="190" y="650" as="sourcePoint" />
            <mxPoint x="240" y="600" as="targetPoint" />
          </mxGeometry>
        </mxCell>
        <mxCell id="HJrGSc-7__fv8DipX3A_-35" value="" style="endArrow=none;html=1;rounded=0;entryX=0.5;entryY=1;entryDx=0;entryDy=0;exitX=0.5;exitY=0;exitDx=0;exitDy=0;" parent="1" source="HJrGSc-7__fv8DipX3A_-33" target="HJrGSc-7__fv8DipX3A_-1" edge="1">
          <mxGeometry width="50" height="50" relative="1" as="geometry">
            <mxPoint x="190" y="380" as="sourcePoint" />
            <mxPoint x="220" y="290" as="targetPoint" />
          </mxGeometry>
        </mxCell>
        <mxCell id="HJrGSc-7__fv8DipX3A_-37" value="N" style="text;html=1;align=center;verticalAlign=middle;whiteSpace=wrap;rounded=0;" parent="1" vertex="1">
          <mxGeometry x="190" y="440" width="60" height="30" as="geometry" />
        </mxCell>
        <mxCell id="HJrGSc-7__fv8DipX3A_-39" value="N" style="text;html=1;align=center;verticalAlign=middle;whiteSpace=wrap;rounded=0;" parent="1" vertex="1">
          <mxGeometry x="190" y="360" width="60" height="30" as="geometry" />
        </mxCell>
        <mxCell id="HJrGSc-7__fv8DipX3A_-40" value="N" style="text;html=1;align=center;verticalAlign=middle;whiteSpace=wrap;rounded=0;" parent="1" vertex="1">
          <mxGeometry x="310" y="640" width="60" height="30" as="geometry" />
        </mxCell>
        <mxCell id="HJrGSc-7__fv8DipX3A_-41" value="1" style="text;html=1;align=center;verticalAlign=middle;whiteSpace=wrap;rounded=0;" parent="1" vertex="1">
          <mxGeometry x="390" y="640" width="60" height="30" as="geometry" />
        </mxCell>
        <mxCell id="R3QhaNTgJ3RTfWgvDygv-2" value="Session" style="shape=ext;margin=3;double=1;whiteSpace=wrap;html=1;align=center;" parent="1" vertex="1">
          <mxGeometry x="130" y="650" width="120" height="60" as="geometry" />
        </mxCell>
        <mxCell id="R3QhaNTgJ3RTfWgvDygv-3" value="password" style="ellipse;whiteSpace=wrap;html=1;fontStyle=0" parent="1" vertex="1">
          <mxGeometry x="30" y="150" width="80" height="30" as="geometry" />
        </mxCell>
        <mxCell id="R3QhaNTgJ3RTfWgvDygv-4" value="" style="endArrow=none;html=1;rounded=0;entryX=0;entryY=0.5;entryDx=0;entryDy=0;exitX=1;exitY=0.5;exitDx=0;exitDy=0;" parent="1" source="R3QhaNTgJ3RTfWgvDygv-3" target="HJrGSc-7__fv8DipX3A_-1" edge="1">
          <mxGeometry width="50" height="50" relative="1" as="geometry">
            <mxPoint x="70" y="320" as="sourcePoint" />
            <mxPoint x="120" y="270" as="targetPoint" />
          </mxGeometry>
        </mxCell>
        <mxCell id="R3QhaNTgJ3RTfWgvDygv-5" value="" style="endArrow=none;html=1;rounded=0;entryX=0.117;entryY=0.1;entryDx=0;entryDy=0;entryPerimeter=0;" parent="1" target="HJrGSc-7__fv8DipX3A_-37" edge="1">
          <mxGeometry width="50" height="50" relative="1" as="geometry">
            <mxPoint x="197" y="650" as="sourcePoint" />
            <mxPoint x="197" y="450" as="targetPoint" />
          </mxGeometry>
        </mxCell>
        <mxCell id="R3QhaNTgJ3RTfWgvDygv-6" value="" style="endArrow=none;html=1;rounded=0;entryX=0.992;entryY=0.633;entryDx=0;entryDy=0;entryPerimeter=0;exitX=0.1;exitY=0.633;exitDx=0;exitDy=0;exitPerimeter=0;" parent="1" source="HJrGSc-7__fv8DipX3A_-27" target="R3QhaNTgJ3RTfWgvDygv-2" edge="1">
          <mxGeometry width="50" height="50" relative="1" as="geometry">
            <mxPoint x="420" y="750" as="sourcePoint" />
            <mxPoint x="470" y="700" as="targetPoint" />
          </mxGeometry>
        </mxCell>
        <mxCell id="U0-rCjGXiwN4bi-g_Ya--1" value="closed" style="ellipse;whiteSpace=wrap;html=1;fontStyle=0" vertex="1" parent="1">
          <mxGeometry x="260" y="750" width="80" height="30" as="geometry" />
        </mxCell>
        <mxCell id="U0-rCjGXiwN4bi-g_Ya--2" value="" style="endArrow=none;html=1;rounded=0;entryX=1;entryY=1;entryDx=0;entryDy=0;exitX=0;exitY=0;exitDx=0;exitDy=0;" edge="1" parent="1" source="U0-rCjGXiwN4bi-g_Ya--1" target="R3QhaNTgJ3RTfWgvDygv-2">
          <mxGeometry width="50" height="50" relative="1" as="geometry">
            <mxPoint x="290" y="790" as="sourcePoint" />
            <mxPoint x="340" y="740" as="targetPoint" />
            <Array as="points">
              <mxPoint x="270" y="740" />
            </Array>
          </mxGeometry>
        </mxCell>
      </root>
    </mxGraphModel>
  </diagram>
</mxfile>
